# xmcd CD database file
#
# Track frame offsets:
#	150
#	21810
#	44682
#	68490
#	91912
#	110582
#	132930
#	150035
#	172795
#	194565
#
# Disc length: 2878 seconds
#
# Revision: 0
# Processed by: cddbd v1.5PL3 Copyright (c) Steve Scherf et al.
# Submitted via: CDex 1.51
#
DISCID=760b3c0a
DTITLE=Changin' My Life - The Best of My Life
DYEAR=2003
DGENRE=JPop
TTITLE0=Confidence
TTITLE1=Myself
TTITLE2=ETERNAL SNOW
TTITLE3=Luv. Remix
TTITLE4=アジサイ
TTITLE5=Star Dust
TTITLE6=エトランゼ
TTITLE7=New Future
TTITLE8=Love Chronicle
TTITLE9=クリスマスにくちづけを （plan:it-b remix）
EXTD=YEAR: 2003
EXTT0=
EXTT1=
EXTT2=
EXTT3=
EXTT4=
EXTT5=
EXTT6=
EXTT7=
EXTT8=
EXTT9=
PLAYORDER=
